<svg xmlns="http://www.w3.org/2000/svg" width="768" height="772" version="1.0" viewBox="0 0 576 579">
  <path d="M175.5 46.6c-3.3 1.5-10.1 4.1-15.2 5.9a55.8 55.8 0 0 0-10.6 4.4c-1 .8-1.6 4-1.9 10-.5 10.8-3.7 18-10.4 24a29 29 0 0 1-16.3 7.1c-2 0-2.3.2-1.1 1 .8.5 10.2 9.6 20.8 20.2l19.3 19.3 17.2-17.7c19.4-19.9 22.5-22.5 29-23.7 12.9-2.4 24 10.9 18.3 21.7-.8 1.5-10.3 11.2-21 21.6a248.8 248.8 0 0 0-19.6 19.9c0 .7 9.4 10.4 20.9 21.7 18.2 17.8 21.1 21 21.7 24.3 2 11.3-11.2 24.3-20.8 20.4a402.4 402.4 0 0 1-40.3-37.9c-1.6-2-3.7-3.7-4.5-3.8-.8 0-10 8.7-20.5 19.5-23 23.6-26 25.3-35 20.1-8.2-4.8-12-13.9-8.8-20.8 1-2 10.5-12.5 21.1-23.3a917.7 917.7 0 0 0 19.2-20c0-.2-9-9.3-19.9-20.3-23-23-24-24.6-20.1-32.7a17 17 0 0 1 6.6-7.4c4.4-2.7 5.5-4.1 3-4.1-.8 0-3.8-1.8-6.7-4-4.2-3.2-5.9-4-7.9-3.4-1.4.3-7.2.8-13 1.1-5.8.3-11.1.9-11.7 1.5-2.4 1.9-1.3 5.1 3.3 10 7.3 7.8 11.4 18.7 14.9 39.3 2.9 16.9.7 25.2-9.1 35.5l-5.6 5.9 2.8 8.3c2.6 7.4 2.8 9.5 2.6 19.3-.1 6 .2 15 .8 20 1.7 15.3 1.8 20.6.4 27.1a31.2 31.2 0 0 1-10.1 18.5c-5.1 5.4-5.6 6.3-10 20.5l-4.6 14.9-.1 35.5c-.1 25.4-.6 37.7-1.6 43.1-1.1 6.3-1.1 8.4 0 12.2 1.5 5.6 2.3 6.3 8.4 7.7a32.4 32.4 0 0 1 23.8 21.8c3.2 9.3 3.2 23 0 32a80.8 80.8 0 0 0-2.9 10.8c-.5 4.2-.4 4.6 3.2 7.7 2.1 1.7 6.2 5.6 9.1 8.4 2.9 2.9 6.1 5.3 7.1 5.3s4.3-1.6 7.3-3.5 8.4-4.9 12-6.7c5.8-2.8 7.4-3.2 15-3.2 7.1-.1 9.4.4 14 2.6 5.7 2.7 10 6.2 13.6 11.2 2.1 2.9 2.2 2.9 13 3 10.6.1 11.1 0 17.8-3.4a29 29 0 0 1 15.8-3.8c8-.4 9.3-.1 15.1 2.6 7.2 3.3 12.1 8.4 17.6 18.2l3.7 6.5 5.1.3c3.8.2 6.1-.3 9.7-2.2 7.5-4 14.6-5.2 21.9-3.7 12.5 2.6 11.5 2.7 15.1-1.6a31 31 0 0 1 34.5-7.5c5.8 2.9 6.7 2.8 14-1a28.1 28.1 0 0 1 25.4-1.3c3.7 1.4 7.3 2.5 8.1 2.3.8-.2 2.9-2.3 4.7-4.7a30.3 30.3 0 0 1 28.4-10.9 37.2 37.2 0 0 1 20 9.9c2.9 2.7 5.6 4.9 6 4.9.4 0 2.6-1.6 4.8-3.6a30.1 30.1 0 0 1 33.1-5.1c3.2 1.5 6.7 2.7 7.7 2.7 1.1 0 4.3-3 8-7.7 9.9-12.5 9.5-11 6.4-20a33.1 33.1 0 0 1 1.5-27.9c3.1-6.3 6-9.4 14.3-15.1 6.5-4.5 7.8-7 8.4-16 .7-9.3.5-9.5-9-11.3a39.1 39.1 0 0 1-28.1-23 26.7 26.7 0 0 1-3.1-15c0-10.2 2.4-16 9.4-22.7a35.8 35.8 0 0 1 22.3-9l7.3-.8.6-8.5c.4-4.7 1.2-9.9 1.9-11.5 1.6-4 1.5-9.2-.3-15.3-.9-2.7-1.8-8-2.2-11.8-.4-3.8-1.2-8.7-1.7-10.9-.6-2.2-1.4-8.1-1.7-13l-.6-9-4.6-1.1a31.2 31.2 0 0 1-22-17c-2.2-4.6-2.4-5.9-2.2-18.9.2-7.8 1-17.8 1.9-22.5.9-4.7 2-15 2.4-23 .5-8 1.3-17.2 1.8-20.5.5-3.3.8-15.4.6-26.9l-.3-20.8-2.8-3c-3.5-3.7-7.4-5.8-10.8-5.8-1.5 0-6-1.1-10.1-2.5-9-3-8.7-3-14-.5a31.6 31.6 0 0 1-28.9-.5A47 47 0 0 1 411.1 66c-3.2-5.8-5.6-8.9-7.6-9.9l-10.7-5.8a42.8 42.8 0 0 0-9.1-4.3c-.8 0-4.3 1.3-7.8 2.9l-6.3 2.9-.1 11.8c0 9.7-.3 12.5-1.9 15.4-3.8 7-7.7 10.9-14.3 14.2a27.6 27.6 0 0 1-26.7-.1c-7.2-3.5-8.2-4.6-19.9-22.5-12.9-19.6-13.4-20.1-16.1-17.3a34 34 0 0 1-13.6 7.1 85.9 85.9 0 0 1-23 1.2c-15.8-.4-18.3-.7-25.5-3.1-4.4-1.5-11.1-4.3-15-6.3a69.7 69.7 0 0 0-18.5-5.8c-6.3-1.3-11.9-2.3-12.5-2.3-.5 0-3.7 1.1-7 2.5zm118.1 38.6c7.2 6.3 6.8 1 7 94.3l.3 86c.1 2 .8 2 87.9 2h87.8l4.3 2.8c10.9 7.2 10.8 19.7-.2 26.2l-4.2 2.4-88 .3-88 .3v86.7c0 86.4 0 86.7-2.1 89.5-7.4 10-19.4 9.8-26.5-.5l-2.4-3.6V300h-87c-58.2 0-88.3-.4-90.8-1.1-5-1.4-11.1-6.9-12.4-11.3-2.1-6.9 1.6-14.2 9.2-18.4 2.7-1.6 10.9-1.7 92-1.7h89V93.2l3-4.4c3.8-5.2 6.6-6.8 12.7-6.8 3.9 0 5.4.6 8.4 3.2zm133.9 9.3a74 74 0 0 1 44.5 43.9 71.5 71.5 0 0 1-.4 44.1 75 75 0 0 1-44.2 43.2 46.3 46.3 0 0 1-20.4 2.8 46.3 46.3 0 0 1-20-2.8 66 66 0 0 1-27-17.7 65.3 65.3 0 0 1-21.1-40.9 63.6 63.6 0 0 1 26.8-62.4 69 69 0 0 1 30.8-12.8c8.3-1.3 23-.1 31 2.6zm-.5 243.4a71.5 71.5 0 0 1 28 18.1 66.7 66.7 0 0 1 20.2 40.4 68.2 68.2 0 0 1-19.1 55.9 73 73 0 0 1-39.3 20.7 75.4 75.4 0 0 1-43.7-9.7 77 77 0 0 1-32.2-39.3 78.5 78.5 0 0 1 2.6-48.6 79.2 79.2 0 0 1 34-34c12-5.8 14.8-6.4 30-6 10.3.2 14.3.7 19.5 2.5zm-308.9.4a248 248 0 0 1 22 20 477.4 477.4 0 0 0 20.2 18.8c.5 0 8.6-7.5 18-16.6 9.5-9.2 19.1-18 21.3-19.6 8.6-5.9 16.7-4.6 22.8 3.8 2.7 3.6 3.6 5.8 3.6 8.9 0 6.4-.7 7.1-33.2 38.3l-8.7 8.4 20.6 21.1a241.2 241.2 0 0 1 22 24.5 17 17 0 0 1-2 15.2c-3.1 4.5-8.1 6.9-14.6 6.9h-5.5l-21.2-21.2a486 486 0 0 0-22.5-21.7c-.7-.2-10.3 8.9-21.3 20.2a353 353 0 0 1-22.3 21.6c-9.3 4.6-22.4-4.9-22.3-16.2.1-6.7 3.6-11.5 23-31.1l19-19.2-18.3-17.3c-10-9.5-19.2-18.9-20.4-20.9-3.2-5.2-2.9-9.9.7-15.4 5.3-8 12.9-11.4 19.1-8.5z"/>
  <path d="M399 124.4a36 36 0 0 0-25.8 20.5c-2.3 4.8-2.7 6.9-2.6 14.6 0 7.4.4 9.9 2.3 13.8a44.2 44.2 0 0 0 18.9 18.9c5.8 2.9 7.6 3.3 14.7 3.3 10.5 0 17.3-3.1 25.5-11.4 8.2-8.4 11.3-15.1 11.3-24.9a34.4 34.4 0 0 0-30.3-35.1c-7.6-1.3-6.9-1.3-14 .3zm-3.6 244a38.7 38.7 0 0 0-25.2 32.2 34 34 0 0 0 5.8 22.2 33.6 33.6 0 0 0 16 14.6 24 24 0 0 0 14 3c14.9-.1 26.8-8.1 34.1-22.9 2.9-6 3.4-7.9 3.4-14.5 0-9.4-3.1-16.3-10.7-23.9a39 39 0 0 0-37.4-10.7z"/>
</svg>
